<svg width="140" height="33" viewBox="0 0 140 33" fill="none" xmlns="http://www.w3.org/2000/svg">
<path d="M0 6.31226H4.92334L8.96002 17.6534L13.3 6.31226H16.31L20.58 17.5374L24.6167 6.31226H29.5867L22.26 26.2578H19.0634L14.7934 14.8935L10.3834 26.2578H7.23335L0 6.31226Z" fill="#042040"/>
<path d="M91.1642 6.31236V8.51565C92.0042 7.65753 93.0076 6.96175 94.1042 6.4747C95.1776 6.01085 96.3209 5.77893 97.4876 5.80212C100.101 5.80212 102.341 6.77621 104.161 8.74757C105.981 10.7189 106.914 13.2469 106.914 16.3083C106.914 19.277 105.958 21.7586 104.068 23.7531C102.178 25.7477 99.9376 26.745 97.3476 26.745C96.2509 26.745 95.1542 26.5362 94.1276 26.142C93.1242 25.7245 92.1442 25.0751 91.1642 24.1242V32.775H86.1709V6.31236H91.1642ZM96.4609 10.4174C94.8742 10.4174 93.5676 10.9509 92.5176 12.0409C91.4676 13.1078 90.9542 14.5225 90.9542 16.262C90.9542 18.0246 91.4676 19.4625 92.5176 20.5526C93.5676 21.6426 94.8742 22.1992 96.4609 22.1992C97.9309 22.2224 99.3542 21.6194 100.334 20.5294C101.384 19.4161 101.921 18.0014 101.921 16.2851C101.921 14.5689 101.408 13.1773 100.381 12.0873C99.3542 10.9972 98.0242 10.4174 96.4609 10.4174Z" fill="#042040"/>
<path d="M109.154 6.312H113.471V8.81681C113.868 7.91229 114.521 7.12374 115.338 6.56711C116.084 6.05687 116.971 5.80176 117.881 5.80176C118.604 5.82495 119.304 5.9873 119.934 6.312L118.371 10.6258C117.788 10.3243 117.298 10.1852 116.924 10.1852C116.154 10.1852 115.501 10.6722 114.964 11.6231C114.428 12.574 114.171 14.4526 114.171 17.2357L114.194 18.2098V26.2809H109.201L109.154 6.312Z" fill="#042040"/>
<path d="M134.961 6.31224H140.001V26.2578H134.961V24.1473C133.981 25.075 133.001 25.7476 131.998 26.165C130.971 26.5825 129.874 26.7912 128.778 26.768C126.188 26.768 123.948 25.7708 122.058 23.7762C120.168 21.7816 119.211 19.3 119.211 16.3314C119.211 13.2468 120.121 10.7188 121.964 8.77064C123.784 6.79928 126.024 5.8252 128.638 5.8252C129.804 5.8252 130.948 6.05712 132.021 6.49778C133.118 6.98482 134.121 7.68059 134.961 8.53872V6.31224ZM129.664 10.4173C128.101 10.4173 126.818 10.9739 125.791 12.064C124.764 13.154 124.251 14.5688 124.251 16.2618C124.251 17.9781 124.764 19.3928 125.814 20.5061C126.794 21.5961 128.218 22.1991 129.688 22.1759C131.274 22.1759 132.581 21.6193 133.631 20.5292C134.681 19.4392 135.194 18.0013 135.194 16.2386C135.194 14.4992 134.681 13.1076 133.631 12.0176C132.581 10.9507 131.274 10.4173 129.664 10.4173Z" fill="#042040"/>
<path d="M73.6172 5.5236C70.2572 5.5236 67.5271 7.19348 65.1005 9.53596C65.5671 10.139 66.0338 10.742 66.4771 11.345C67.1771 12.2727 67.9471 13.27 68.7171 14.2209C70.3505 12.5278 71.9605 11.3914 73.6172 11.3914C76.1605 11.3914 78.2372 13.5251 78.2372 16.0067C78.2372 18.5579 76.1838 20.6221 73.6172 20.6221C70.5838 20.6221 67.6905 16.8185 64.6105 12.7829C62.3938 9.88385 60.1071 6.89197 57.2605 4.47992C53.7604 1.53444 50.0971 0.0732989 46.0838 0.0732989C37.2404 0.0501061 30.0537 7.1471 30.0071 15.9372C29.9604 24.7272 37.1237 31.8706 45.9671 31.917C45.9904 31.917 46.0371 31.917 46.0604 31.917C50.0738 31.917 53.7371 30.479 57.2371 27.5336C58.9638 26.0724 60.5038 24.3793 61.9271 22.6167C60.6205 21.1555 59.3838 19.532 58.1705 17.9549C56.6771 19.8335 55.1138 21.6658 53.4338 23.0805C51.0071 25.1215 48.6738 26.0724 46.0604 26.0724C40.4604 26.0724 35.9104 21.5498 35.9104 15.9835C35.9104 10.4173 40.4604 5.89469 46.0604 5.89469C48.6738 5.89469 51.0071 6.84559 53.4338 8.90975C55.7905 10.9043 57.8671 13.6411 59.8971 16.2851C63.7005 21.2715 67.6438 26.4435 73.5938 26.4435C79.4038 26.4203 84.0938 21.7586 84.0938 15.9835C84.1172 10.2549 79.4038 5.5236 73.6172 5.5236Z" fill="#042040"/>
</svg>
