<svg width="140" height="38" viewBox="0 0 140 38" fill="none" xmlns="http://www.w3.org/2000/svg">
<path fill-rule="evenodd" clip-rule="evenodd" d="M21.2102 3.15864C21.2102 1.36484 22.7168 0 24.487 0C26.2572 0 27.6885 1.36484 27.6885 3.15864C27.6885 4.95243 26.2572 6.35627 24.487 6.35627C22.7168 6.35627 21.2102 4.95243 21.2102 3.15864ZM5.53665 20.2383H0C0 25.0738 3.76643 28.5444 9.41608 28.5444C14.0111 28.5444 18.6815 26.0097 18.7568 20.6673C18.8322 18.0936 17.9282 14.428 11.6383 12.5562L8.5498 11.5423C6.02629 10.8014 5.76264 9.51457 5.76264 8.81265C5.76264 7.21383 7.19388 6.12195 9.11476 6.12195C11.2993 6.12195 12.4669 7.36981 12.4669 9.16361H17.9659C17.9659 4.01619 14.1994 0.935547 9.19009 0.935547C4.2184 0.935547 0.26365 4.17218 0.26365 8.96863C0.26365 11.3864 1.24292 14.857 6.9679 16.6897L10.094 17.5866C12.7305 18.3666 13.2578 19.4194 13.2202 20.6283C13.1825 22.3831 11.6383 23.475 9.41608 23.475C6.93023 23.475 5.61198 21.9541 5.53665 20.2383ZM27.083 28.1155V9.90454H21.8854V28.1155H27.083ZM39.6471 14.6626C41.8316 14.6626 43.9032 16.2224 43.9032 18.9521C43.9032 21.6038 41.794 23.3976 39.6471 23.3976C37.4249 23.3976 35.4287 21.6818 35.4287 18.9521C35.4287 16.3784 37.4249 14.6626 39.6471 14.6626ZM39.1587 32.327C37.3884 32.327 35.3169 31.0792 34.7143 29.4024C34.0557 29.7336 33.3313 30.1037 32.6068 30.4739L32.6059 30.4743L32.6051 30.4747C31.8801 30.8452 31.155 31.2157 30.4959 31.5471C31.9648 34.9397 35.2792 37.2015 39.1587 37.2015C45.4109 37.2015 49.102 33.4189 49.102 25.5808V9.9046H44.0174V12.1663C43.1511 10.4895 40.9289 9.51465 38.7444 9.51465C34.2246 9.51465 29.9686 13.2192 29.9686 19.0686C29.9686 24.8009 34.2246 28.5055 38.7444 28.5055C40.9289 28.5055 43.1887 27.5306 44.0174 25.8538C44.2433 29.4804 43.1511 32.327 39.1587 32.327ZM57.6866 18.4836V28.1155H52.4513V9.9046H57.6866V12.5563C58.6282 10.7235 60.6998 9.51465 62.7713 9.51465C66.7261 9.51465 69.2119 12.0494 69.2119 17.2358V28.1155H63.9766V18.4056C63.9766 15.9879 62.696 14.779 60.9258 14.779C59.0802 14.779 57.6866 15.7149 57.6866 18.4836ZM77.7844 28.1155V9.90454H72.5867V28.1155H77.7844ZM71.9116 3.15864C71.9116 1.36484 73.4181 0 75.1884 0C76.9586 0 78.3898 1.36484 78.3898 3.15864C78.3898 4.95243 76.9586 6.35627 75.1884 6.35627C73.4181 6.35627 71.9116 4.95243 71.9116 3.15864ZM92.4066 5.18641V0H91.5403C86.4933 0 83.5931 3.08065 83.5931 8.65701V9.90487H80.2787V14.1944H83.5931V28.1158H88.8661V14.1944H92.4066V9.90487H88.8661V8.65701C88.8661 6.51226 89.7324 5.18641 91.5403 5.18641H92.4066ZM100.244 9.90454V28.1155H95.0463V9.90454H100.244ZM97.6437 0C95.8735 0 94.3669 1.36484 94.3669 3.15864C94.3669 4.95243 95.8735 6.35627 97.6437 6.35627C99.414 6.35627 100.845 4.95243 100.845 3.15864C100.845 1.36484 99.414 0 97.6437 0ZM102.852 18.9516C102.852 13.2192 107.372 9.51465 112.419 9.51465C115.545 9.51465 118.37 10.9185 120.064 13.3752L115.808 16.5338C115.093 15.364 113.775 14.7011 112.419 14.7011C110.196 14.7011 108.05 16.3389 108.05 18.9516C108.05 21.5643 110.196 23.3191 112.419 23.3191C113.775 23.3191 115.093 22.6561 115.808 21.4863L120.064 24.6059C118.407 27.0626 115.582 28.5055 112.419 28.5055C107.372 28.5055 102.852 24.6839 102.852 18.9516ZM134.802 26.0488V28.1155H140V9.9046H134.802V11.9324C133.446 9.9046 130.81 9.51465 129.68 9.51465C125.198 9.51465 120.716 13.1412 120.716 18.9906C120.716 24.8399 125.198 28.4665 129.68 28.4665C131.036 28.4665 133.672 27.8036 134.802 26.0488ZM130.548 23.3196C128.363 23.3196 126.141 21.6038 126.141 18.9911C126.141 16.3784 128.363 14.6626 130.548 14.6626C132.695 14.6626 134.804 16.2614 134.804 18.9911C134.804 21.7208 132.695 23.3196 130.548 23.3196Z" fill="#042040"/>
</svg>
